<?xml version="1.0" encoding="UTF-8"?>
<svg id="Ebene_1" data-name="Ebene 1" xmlns="http://www.w3.org/2000/svg" viewBox="0 0 1024 1024">
  <defs>
    <style>
      .cls-1 {
        fill: #1d1d1b;
      }
    </style>
  </defs>
  <path class="cls-1" d="M511.6,979.1c-61.68,0-121.88-11.98-178.9-35.6-57.03-23.62-108.06-57.71-151.67-101.33s-78.74-96.36-102.15-154.53c-22.55-56.01-33.98-115.24-33.98-176.04s11.43-120.03,33.98-176.04c23.42-58.17,57.79-110.17,102.15-154.53,44.37-44.37,96.36-78.74,154.53-102.15,56.01-22.55,115.24-33.98,176.04-33.98s120.03,11.43,176.04,33.98c58.17,23.42,110.17,57.79,154.53,102.15s77.71,94.65,101.33,151.67c23.62,57.02,35.6,117.22,35.6,178.9,0,34.52-27.98,62.5-62.5,62.5s-62.5-27.98-62.5-62.5c0-45.19-8.78-89.28-26.08-131.06-17.31-41.78-42.28-79.17-74.23-111.12s-70.36-57.49-112.82-74.58c-41.11-16.55-84.63-24.94-129.36-24.94s-88.26,8.39-129.36,24.94c-42.47,17.09-80.42,42.19-112.82,74.58s-57.49,70.36-74.58,112.82c-16.55,41.11-24.94,84.63-24.94,129.36s8.39,88.26,24.94,129.36c17.09,42.47,42.19,80.42,74.58,112.82s69.34,56.93,111.12,74.23c41.78,17.31,85.88,26.08,131.06,26.08,34.52,0,62.5,27.98,62.5,62.5s-27.98,62.5-62.5,62.5Z"/>
  <path class="cls-1" d="M649.5,712c-16,0-31.99-6.1-44.19-18.31l-275-275c-24.41-24.41-24.41-63.98,0-88.39,24.41-24.41,63.98-24.41,88.39,0l275,275c24.41,24.41,24.41,63.98,0,88.39-12.2,12.2-28.2,18.31-44.19,18.31Z"/>
  <path class="cls-1" d="M374.5,712c-16,0-31.99-6.1-44.19-18.31-24.41-24.41-24.41-63.98,0-88.39l275-275c24.41-24.41,63.98-24.41,88.39,0,24.41,24.41,24.41,63.98,0,88.39l-275,275c-12.2,12.2-28.2,18.31-44.19,18.31Z"/>
  <path class="cls-1" d="M831.6,979.1h-320c-34.52,0-62.5-27.98-62.5-62.5s27.98-62.5,62.5-62.5h320c12.41,0,22.5-10.09,22.5-22.5v-320c0-34.52,27.98-62.5,62.5-62.5s62.5,27.98,62.5,62.5v320c0,81.33-66.17,147.5-147.5,147.5Z"/>
</svg>